<svg xmlns="http://www.w3.org/2000/svg" viewBox="0 0 264 48" width="264" height="48">
    <circle fill="#31c48d" cx="24" cy="24" r="24"/>
    <path fill="#def7ec" d="M24 8l-6.7 2.6-.2 4-5.7 2.1.3-4-6.2 2.4-2.3 20.9c4.1 7 11.7 11.8 20.4 12l.4-.1v-39.9zm-8.7 24l-4.2 1.3.7-9.4c.1-1.2 1-2.5 2.1-2.9 1.1-.4 1.9.3 1.9 1.5l-.5 9.5z"/>
    <path fill="#014737" d="M36.3 12.8l.3 4-5.7-2.1-.2-4-6.7-2.7v39.9l.4.1c8.7-.1 16.3-4.9 20.4-12l-2.4-20.8-6.1-2.4zm-3.6 19.2l-.5-9.5c-.1-1.2.8-1.9 1.9-1.5 1.1.4 2 1.7 2.1 2.9l.7 9.4-4.2-1.3z"/>
    <path d="M154.3 19.4c-4.7 0-7.9 3.4-7.9 7.8s3.2 7.8 8.2 7.8c2.9 0 5.1-1.2 6.5-3.2l-3.1-1.8c-.7.9-1.9 1.5-3.3 1.5-2 0-3.7-.8-4.2-2.8h11.3c.1-.5.1-1 .1-1.6-.1-4.3-3.2-7.7-7.6-7.7zm-3.9 6.4c.4-1.9 1.9-3 3.9-3 1.6 0 3.2.9 3.7 3h-7.6zm-39-6.3v4.3c-2-.2-4.5.7-4.5 3.8v7.1h-3.9v-14.9h3.9v2.5c.8-2 2.7-2.8 4.5-2.8zm-36.9 11.2h8v3.9h-12.1v-20.7h4.1v16.8zm21.2-9.2c-1.1-1.3-2.7-2.2-4.9-2.2-4 0-7.3 3.4-7.3 7.8s3.3 7.8 7.3 7.8c2.2 0 3.8-.8 4.9-2.2v1.7h3.9v-14.6h-3.9v1.7zm-4.1 9.9c-2.4 0-4.1-1.7-4.1-4.2s1.8-4.2 4.1-4.2c2.4 0 4.2 1.7 4.2 4.2-.1 2.5-1.9 4.2-4.2 4.2zm50.1-11.6h4.2l-5.7 14.8h-4.4l-5.7-14.8h4.2l3.6 10.3 3.8-10.3zm26.7-6.8v21.6h-3.9v-21.6h3.9zm-43.9 8.5c-1.1-1.3-2.7-2.2-4.9-2.2-4 0-7.3 3.4-7.3 7.8s3.3 7.8 7.3 7.8c2.2 0 3.8-.8 4.9-2.2v1.7h3.9v-14.6h-3.9v1.7zm-4.2 9.9c-2.4 0-4.1-1.7-4.1-4.2s1.8-4.2 4.1-4.2c2.4 0 4.2 1.7 4.2 4.2s-1.8 4.2-4.2 4.2zM180 35v-20.6h12.8v2h-10.4v7.2h9.8v2h-9.8v9.4h-2.4zm18.2-.7c-1-.6-1.9-1.5-2.4-2.6-.6-1.1-.9-2.5-.9-4s.3-2.9.9-4c.6-1.1 1.4-2 2.4-2.6s2.3-.9 3.6-.9c1.4 0 2.6.3 3.6.9 1 .6 1.9 1.5 2.4 2.6.6 1.1.9 2.5.9 4s-.3 2.9-.9 4c-.6 1.1-1.4 2-2.4 2.6-1 .6-2.3.9-3.6.9-1.4 0-2.6-.3-3.6-.9zm6.9-2.5c.8-1 1.2-2.3 1.2-4.2 0-1.8-.4-3.2-1.2-4.1-.8-1-1.9-1.5-3.3-1.5s-2.5.5-3.3 1.5c-.8 1-1.2 2.4-1.2 4.1 0 1.8.4 3.2 1.2 4.2.8 1 1.9 1.4 3.3 1.4s2.5-.4 3.3-1.4zm15.3-11.5l-.1 2.1c-.4-.2-1-.2-1.5-.2-1.4 0-2.5.4-3.1 1.3-.7.9-1 1.9-1 3.2v8.3h-2.3v-10.5c0-1.5-.1-2.9-.2-4.1h2.2l.2 2.7c.4-1 1-1.7 1.8-2.3.8-.5 1.7-.8 2.8-.8.4.1.8.1 1.2.3zm6.7 2v8c0 1.1.2 1.8.7 2.3.4.4 1.1.7 1.9.7.5 0 1.1-.1 1.6-.3v2c-.6.2-1.3.3-2 .3-1.4 0-2.5-.4-3.3-1.2-.8-.8-1.2-1.9-1.2-3.5v-8.3h-2.8v-1.9h2.8v-3.7l2.3-.8v4.6h4.2v1.9h-4.2zm6.8-8h2.9v2.7h-2.9v-2.7zm.2 20.7v-14.6h2.3v14.6h-2.3zm10.7-18.7c-.4.4-.7 1.2-.7 2.2v1.9h3.6v1.9h-3.6v12.7h-2.3v-12.7h-2.8v-1.9h2.8v-2.2c0-1.5.4-2.7 1.1-3.5.8-.8 1.8-1.2 3.2-1.2.7 0 1.3.1 2 .3v2c-.5-.2-1-.2-1.5-.2-.8 0-1.4.2-1.8.7zm19.2 4.1l-6.8 15.9c-.7 1.7-1.6 2.9-2.7 3.6-1.1.8-2.4 1.3-4 1.6l-.5-1.8c1.4-.3 2.4-.7 3.1-1.2.7-.5 1.3-1.3 1.8-2.4l.6-1.3-6.2-14.4h2.5l4.9 12 5-12h2.3z"/>
</svg>
