<svg viewBox="0 0 358 66" xmlns="http://www.w3.org/2000/svg">
    <style>
        #fortify { fill: #2e2e2e } @media (prefers-color-scheme:dark) { #fortify { fill: #fff } }
    </style>
    <path d="M33.2 65.7C51.1493 65.7 65.7 51.1492 65.7 33.2C65.7 15.2507 51.1493 0.699951 33.2 0.699951C15.2507 0.699951 0.699997 15.2507 0.699997 33.2C0.699997 51.1492 15.2507 65.7 33.2 65.7Z" fill="#31C48D"/>
    <path d="M33.2 11.5L24.1 15L23.8 20.4L16.1 23.2L16.5 17.8L8.1 21L5 49.4C10.5 58.9 20.8 65.4 32.6 65.6L33.1 65.5C33.2 65.5 33.2 11.5 33.2 11.5ZM21.4 44L15.7 45.8L16.7 33C16.8 31.4 18.1 29.6 19.5 29.1C20.9 28.6 22.1 29.5 22.1 31.1L21.4 44Z" fill="#DEF7EC"/>
    <path d="M49.8 18L50.2 23.4L42.5 20.6L42.2 15.2L33.1 11.5V65.5L33.6 65.6C45.4 65.5 55.6 59 61.2 49.4L58 21.3C58.1 21.3 49.8 18 49.8 18ZM44.9 44L44.2 31.1C44.1 29.5 45.3 28.5 46.8 29.1C48.3 29.6 49.5 31.4 49.6 33L50.5 45.7L44.9 44Z" fill="#014737"/>
    <path id="fortify" d="M244.2 48.1V20.2001H261.5V22.9H247.4V32.6H260.7V35.3H247.4V48H244.2V48.1ZM268.8 47.1C267.4 46.3 266.2 45.1 265.6 43.6C264.8 42.1 264.4 40.2001 264.4 38.2001C264.4 36.2001 264.8 34.3 265.6 32.8C266.4 31.3 267.5 30.1 268.8 29.3C270.1 28.5 271.9 28.1 273.7 28.1C275.6 28.1 277.2 28.5 278.6 29.3C280 30.1 281.2 31.3 281.8 32.8C282.6 34.3 283 36.2001 283 38.2001C283 40.2001 282.6 42.1 281.8 43.6C281 45.1 279.9 46.3 278.6 47.1C277.2 47.9 275.5 48.3 273.7 48.3C271.8 48.3 270.2 47.9 268.8 47.1ZM278.1 43.7001C279.2 42.3001 279.7 40.6 279.7 38C279.7 35.6 279.2 33.7 278.1 32.5C277 31.1 275.5 30.5 273.6 30.5C271.7 30.5 270.2 31.2 269.1 32.5C268 33.9 267.5 35.7 267.5 38C267.5 40.4 268 42.3001 269.1 43.7001C270.2 45.1001 271.7 45.6 273.6 45.6C275.6 45.6 277.1 45.1001 278.1 43.7001ZM298.8 28.2001L298.7 31C298.2 30.7 297.3 30.7001 296.7 30.7001C294.8 30.7001 293.3 31.2 292.5 32.5C291.6 33.7 291.1 35.1 291.1 36.8V48H288V33.8C288 31.8 287.9 29.9 287.7 28.3H290.7L291 32C291.5 30.6 292.4 29.7 293.4 28.9C294.5 28.2 295.7 27.8 297.2 27.8C297.8 27.9 298.3 27.9001 298.8 28.2001ZM307.9 30.9V41.7001C307.9 43.2001 308.2 44.1 308.8 44.8C309.3 45.3 310.3 45.7001 311.4 45.7001C312.1 45.7001 312.9 45.6 313.6 45.3V48C312.8 48.3 311.8 48.4001 310.9 48.4001C309 48.4001 307.5 47.9 306.4 46.8C305.3 45.7 304.8 44.2 304.8 42.1V30.9H301V28.3H304.8V23.3L307.9 22.2001V28.4H313.6V31H307.9V30.9ZM317.1 20.1H321V23.8H317.1V20.1ZM317.4 48.1V28.3H320.5V48H317.4V48.1ZM331.8 22.8C331.3 23.3 330.9 24.4 330.9 25.8V28.4H335.8V31H330.9V48.2001H327.8V30.9H324V28.3H327.8V25.3C327.8 23.3 328.3 21.6 329.3 20.6C330.4 19.5 331.7 19 333.6 19C334.5 19 335.4 19.1 336.3 19.4V22.1C335.6 21.8 334.9 21.8 334.3 21.8C333.2 21.8 332.4 22.1 331.8 22.8ZM357.8 28.3L348.6 49.8C347.7 52.1 346.4 53.7001 344.9 54.7001C343.4 55.8001 341.7 56.5001 339.5 56.9001L338.8 54.5C340.7 54.1 342 53.6001 343 52.9001C343.9 52.2001 344.8 51.1001 345.4 49.7001L346.2 47.9001L337.8 28.4H341.2L347.8 44.6L354.6 28.4L357.8 28.3ZM219.7 37.4001C219.6 31.6001 215.4 27 209.4 27C203 27 198.7 31.6 198.7 37.6C198.7 43.6 203 48.2001 209.8 48.2001C213.7 48.2001 216.7 46.6001 218.6 43.9001L214.4 41.5C213.5 42.7 211.8 43.5 209.9 43.5C207.2 43.5 204.9 42.4001 204.2 39.7001H219.5C219.7 38.9001 219.7 38.2001 219.7 37.4001ZM204.2 35.6C204.7 33 206.8 31.5 209.5 31.5C211.7 31.5 213.8 32.7 214.5 35.6H204.2ZM151.4 27.1V32.9001C148.7 32.6001 145.3 33.8 145.3 38V47.6H140V27.5H145.3V30.9C146.4 28.2 149 27.1 151.4 27.1ZM101.5 42.2001H112.3V47.5H95.9V19.5H101.5V42.2001ZM130.2 27.5V29.8C128.7 28 126.5 26.8 123.6 26.8C118.2 26.8 113.7 31.4001 113.7 37.4001C113.7 43.4001 118.2 48 123.6 48C126.6 48 128.7 46.9 130.2 45V47.3H135.5V27.5H130.2ZM124.6 43.2001C121.4 43.2001 119.1 40.9 119.1 37.5C119.1 34.1 121.5 31.8 124.6 31.8C127.8 31.8 130.3 34.1 130.3 37.5C130.2 40.9 127.7 43.2001 124.6 43.2001ZM192.4 27.5H198.1L190.4 47.5H184.4L176.7 27.5H182.4L187.2 41.4001L192.4 27.5ZM223.2 18.3H228.5V47.5H223.2V18.3ZM169.1 27.5V29.8C167.6 28 165.4 26.8 162.5 26.8C157.1 26.8 152.6 31.4001 152.6 37.4001C152.6 43.4001 157.1 48 162.5 48C165.5 48 167.6 46.9 169.1 45V47.3H174.4V27.5H169.1ZM163.4 43.2001C160.2 43.2001 157.9 40.9 157.9 37.5C157.9 34.1 160.3 31.8 163.4 31.8C166.6 31.8 169.1 34.1 169.1 37.5C169.1 40.9 166.7 43.2001 163.4 43.2001Z"/>
</svg>
