<svg xmlns="http://www.w3.org/2000/svg" width="362" height="69" viewBox="0 0 362 69"><style>.st0{fill:#fff}.st4{fill:#2e2e2e}</style><path class="st0" d="M221.9 17v16c-2-4.5-6.3-7.4-11.5-7.4-3.6 0-6.8 1.3-9.1 3.5l1.1-3h-10.7l-3.4 9.3-3.3-9.3h-17.3v.1c-1.3-.5-2.7-.8-4.3-.8-3.4 0-6.5 1.5-8.7 3.9v-3.6h-2.3c-1.3 0-2.6.3-3.7.7v-.3h-19.9v.1c-1.3-.5-2.7-.8-4.3-.8-6.7 0-12.2 5.8-12.2 12.9 0 .9.1 1.7.2 2.5h-7.7V18.2H94.6v32.7h21.1v-3.7c2.2 2.5 5.4 4.1 8.9 4.1 1.6 0 3-.3 4.3-.8v.1h9.9v.4h10V39c0-1.8.9-2.7 2.8-2.8-.1.7-.2 1.4-.2 2.1 0 7.1 5.5 12.9 12.2 12.9 1.6 0 3-.3 4.3-.8v.1h10V35.1l6.1 15.7h9.2l4.5-11.6c.4 7.1 5.9 12.2 13.4 12.2 4.5 0 8.3-1.9 10.7-5.3l.3-.5v5.3h10V17h-10.2zm-96.3 24.8c-2 0-3.2-1.3-3.2-3.3 0-2 1.3-3.3 3.2-3.3 2 0 3.3 1.3 3.3 3.2 0 2.1-1.4 3.4-3.3 3.4zm38.8 0c-2 0-3.2-1.3-3.2-3.3 0-2 1.3-3.3 3.2-3.3 2 0 3.3 1.3 3.3 3.3.1 2-1.2 3.3-3.3 3.3zM34.2 68.3C15.3 68.3 0 53 0 34.2 0 15.3 15.3 0 34.2 0s34.2 15.3 34.2 34.2C68.3 53 53 68.3 34.2 68.3z"/><circle cx="34.2" cy="34.2" r="32.5" fill="#31c48d"/><path d="M34.2 12.5 25.1 16l-.3 5.4-7.7 2.8.4-5.4L9.1 22 6 50.4c5.5 9.5 15.8 16 27.6 16.2l.5-.1c.1 0 .1-54 .1-54zM22.4 45l-5.7 1.8 1-12.8c.1-1.6 1.4-3.4 2.8-3.9s2.6.4 2.6 2L22.4 45z" fill="#def7ec"/><path d="m50.8 19 .4 5.4-7.7-2.8-.3-5.4-9.1-3.7v54l.5.1c11.8-.1 22-6.6 27.6-16.2L59 22.3c.1 0-8.2-3.3-8.2-3.3zm-4.9 26-.7-12.9c-.1-1.6 1.1-2.6 2.6-2 1.5.5 2.7 2.3 2.8 3.9l.9 12.7-5.6-1.7z" fill="#014737"/><path class="st0" d="m337.8 54.1 1.8-.4c1.6-.3 2.8-.8 3.6-1.3.7-.5 1.3-1.4 1.9-2.6l.5-1.1-7-16.2v1h-4.9v17.2h-6.5V33.6h-3.8v-6h3.8v-1.3c0-2.4.7-4.4 1.9-5.9l.1-.1c1.4-1.4 3.2-2.1 5.5-2.1 1.1 0 2 .1 3.2.5l1.2.4v6.5l-2.3-.9c-.4-.1-.8-.1-1.4-.1-.9 0-1 .2-1.1.3l-.1.1-.1.1c-.1.1-.4.7-.4 1.8v.9h9.9l5.5 13.5 5.6-13.5h6.8l-10.2 23.9c-1.1 2.6-2.5 4.5-4.3 5.6-1.7 1.2-3.6 2-6.1 2.4l-1.5.3-1.6-5.9zm-25.9-2.9c-2.4 0-4.3-.7-5.7-2.1-1.4-1.4-2.1-3.4-2.1-5.9v-9.5h-2.7l-.1 1.1-2.3-1.2c-.2-.1-.9-.1-1.3-.1-1 0-2.2.2-2.8 1l-.1.1c-.7.9-1 1.9-1 3.3v12.9h-6.5v-16c0-2-.1-3.8-.3-5.4l-.2-1.8h6.4l.1.9.1-.1h.1c1.4-.9 3-1.3 4.7-1.3h.2l.2.1c.1 0 .3.1.4.1.4.1.9.2 1.5.4h3.6v-4.5l6.5-2.3v6.9h5.7v6h-5.7v9c0 1.3.2 1.7.4 1.9.2.2.7.4 1.4.4.5 0 1.1-.1 1.5-.3l2.3-.9v6.5l-1.2.4c-.8.2-2 .4-3.1.4zm-37.2-.2c-2.2 0-4.1-.5-5.7-1.5-1.7-1-3.1-2.5-3.9-4.2-.9-1.7-1.4-3.8-1.4-6.2 0-2.4.5-4.5 1.4-6.2 1-1.8 2.3-3.2 3.9-4.2 1.6-.9 3.6-1.5 5.7-1.5 2.2 0 4.1.5 5.7 1.5 1.7 1 3.1 2.5 3.9 4.2.9 1.7 1.4 3.8 1.4 6.2 0 2.4-.5 4.5-1.4 6.2-1 1.8-2.3 3.2-3.9 4.2-1.5 1-3.6 1.5-5.7 1.5zm0-17.8c-1.4 0-2.4.4-3.1 1.4-.8 1-1.3 2.6-1.3 4.5 0 2 .4 3.6 1.2 4.6.7.9 1.7 1.3 3.1 1.3 1.5 0 2.4-.4 3.1-1.3.9-1.1 1.3-2.5 1.3-4.6 0-2-.4-3.5-1.2-4.4-.7-1.1-1.7-1.5-3.1-1.5zm42 17.6V27.6h6.5v23.2h-6.5zm-73.2 0V19.5h20.7v6.1h-14.1v6.3h13.3V38h-13.3v12.7h-6.6zm72.9-24.4v-7.1h7.3v7.1h-7.3z"/><path class="st4" d="M245.2 49.1V21.2h17.3v2.7h-14.1v9.7h13.3v2.7h-13.3V49h-3.2v.1zm24.6-1c-1.4-.8-2.6-2-3.2-3.5-.8-1.5-1.2-3.4-1.2-5.4s.4-3.9 1.2-5.4c.8-1.5 1.9-2.7 3.2-3.5s3.1-1.2 4.9-1.2c1.9 0 3.5.4 4.9 1.2s2.6 2 3.2 3.5c.8 1.5 1.2 3.4 1.2 5.4s-.4 3.9-1.2 5.4c-.8 1.5-1.9 2.7-3.2 3.5-1.4.8-3.1 1.2-4.9 1.2-1.9 0-3.5-.4-4.9-1.2zm9.3-3.4c1.1-1.4 1.6-3.1 1.6-5.7 0-2.4-.5-4.3-1.6-5.5-1.1-1.4-2.6-2-4.5-2s-3.4.7-4.5 2c-1.1 1.4-1.6 3.2-1.6 5.5 0 2.4.5 4.3 1.6 5.7s2.6 1.9 4.5 1.9c2 0 3.5-.5 4.5-1.9zm20.7-15.5-.1 2.8c-.5-.3-1.4-.3-2-.3-1.9 0-3.4.5-4.2 1.8-.9 1.2-1.4 2.6-1.4 4.3V49H289V34.8c0-2-.1-3.9-.3-5.5h3l.3 3.7c.5-1.4 1.4-2.3 2.4-3.1 1.1-.7 2.3-1.1 3.8-1.1.6.1 1.1.1 1.6.4zm9.1 2.7v10.8c0 1.5.3 2.4.9 3.1.5.5 1.5.9 2.6.9.7 0 1.5-.1 2.2-.4V49c-.8.3-1.8.4-2.7.4-1.9 0-3.4-.5-4.5-1.6s-1.6-2.6-1.6-4.7V31.9H302v-2.6h3.8v-5l3.1-1.1v6.2h5.7V32h-5.7v-.1zm9.2-10.8h3.9v3.7h-3.9v-3.7zm.3 28V29.3h3.1V49h-3.1zm14.4-25.3c-.5.5-.9 1.6-.9 3v2.6h4.9V32h-4.9v17.2h-3.1V31.9H325v-2.6h3.8v-3c0-2 .5-3.7 1.5-4.7 1.1-1.1 2.4-1.6 4.3-1.6.9 0 1.8.1 2.7.4v2.7c-.7-.3-1.4-.3-2-.3-1.1 0-1.9.3-2.5 1zm26 5.5-9.2 21.5c-.9 2.3-2.2 3.9-3.7 4.9-1.5 1.1-3.2 1.8-5.4 2.2l-.7-2.4c1.9-.4 3.2-.9 4.2-1.6.9-.7 1.8-1.8 2.4-3.2l.8-1.8-8.4-19.5h3.4l6.6 16.2 6.8-16.2 3.2-.1zM220.7 38.4c-.1-5.8-4.3-10.4-10.3-10.4-6.4 0-10.7 4.6-10.7 10.6s4.3 10.6 11.1 10.6c3.9 0 6.9-1.6 8.8-4.3l-4.2-2.4c-.9 1.2-2.6 2-4.5 2-2.7 0-5-1.1-5.7-3.8h15.3c.2-.8.2-1.5.2-2.3zm-15.5-1.8c.5-2.6 2.6-4.1 5.3-4.1 2.2 0 4.3 1.2 5 4.1h-10.3zM152.4 28.1v5.8c-2.7-.3-6.1.9-6.1 5.1v9.6H141V28.5h5.3v3.4c1.1-2.7 3.7-3.8 6.1-3.8zM102.5 43.2h10.8v5.3H96.9v-28h5.6zM131.2 28.5v2.3c-1.5-1.8-3.7-3-6.6-3-5.4 0-9.9 4.6-9.9 10.6s4.5 10.6 9.9 10.6c3 0 5.1-1.1 6.6-3v2.3h5.3V28.5h-5.3zm-5.6 15.7c-3.2 0-5.5-2.3-5.5-5.7s2.4-5.7 5.5-5.7c3.2 0 5.7 2.3 5.7 5.7-.1 3.4-2.6 5.7-5.7 5.7zM193.4 28.5h5.7l-7.7 20h-6l-7.7-20h5.7l4.8 13.9 5.2-13.9zM224.2 19.3h5.3v29.2h-5.3zM170.1 28.5v2.3c-1.5-1.8-3.7-3-6.6-3-5.4 0-9.9 4.6-9.9 10.6s4.5 10.6 9.9 10.6c3 0 5.1-1.1 6.6-3v2.3h5.3V28.5h-5.3zm-5.7 15.7c-3.2 0-5.5-2.3-5.5-5.7s2.4-5.7 5.5-5.7c3.2 0 5.7 2.3 5.7 5.7 0 3.4-2.4 5.7-5.7 5.7z"/></svg>